<svg width="40" height="40" viewBox="0 0 40 40" fill="none" xmlns="http://www.w3.org/2000/svg">
<path d="M37.743 0.0390625L34.4157 36.0792L19.9998 39.9608L5.5836 36.0792L2.25696 0.0390625H37.743ZM31.0383 7.36727H19.9868H8.73954L9.27743 11.7195H19.9868H20.5884L19.9868 11.9698L9.66883 16.2672L10.011 20.5213L19.9868 20.5537L25.3335 20.5706L24.9913 26.243L19.9867 27.652V27.6475L19.9457 27.6589L15.1126 26.4388L14.8193 22.9177H14.8033H10.3203H10.3045L10.8913 29.7152L19.9869 32.4049V32.4001L20.0033 32.4049L29.0501 29.7641L30.2236 16.2672H19.9869H19.9616L19.9869 16.2562L30.5986 11.7195L31.0383 7.36727Z" fill="white"/>
</svg>
