<svg width="50" height="50" viewBox="0 0 50 50" fill="none" xmlns="http://www.w3.org/2000/svg">
<path d="M4.16666 14.5833V10.4167C4.16666 9.27083 4.57464 8.28993 5.39061 7.47396C6.20659 6.65799 7.18749 6.25 8.33332 6.25H41.6667C42.8125 6.25 43.7934 6.65799 44.6094 7.47396C45.4253 8.28993 45.8333 9.27083 45.8333 10.4167V14.5833H41.6667V10.4167H8.33332V14.5833H4.16666ZM16.6667 43.75V39.5833H8.33332C7.18749 39.5833 6.20659 39.1753 5.39061 38.3594C4.57464 37.5434 4.16666 36.5625 4.16666 35.4167V31.25H8.33332V35.4167H41.6667V31.25H45.8333V35.4167C45.8333 36.5625 45.4253 37.5434 44.6094 38.3594C43.7934 39.1753 42.8125 39.5833 41.6667 39.5833H33.3333V43.75H16.6667ZM9.99999 22.9167L15.4167 17.5L12.5 14.5833L4.16666 22.9167L12.5 31.25L15.4167 28.3333L9.99999 22.9167ZM40 22.9167L34.5833 28.3333L37.5 31.25L45.8333 22.9167L37.5 14.5833L34.5833 17.5L40 22.9167Z" fill="#FCFCFC"/>
</svg>
