<svg width="50" height="50" viewBox="0 0 50 50" fill="none" xmlns="http://www.w3.org/2000/svg">
<path d="M17.9167 34.5834L8.33333 25L17.9167 15.4167L20.8333 18.4375L14.2708 25L20.8333 31.5625L17.9167 34.5834ZM10.4167 35.4167H14.5833V37.5H35.4167V35.4167H39.5833V43.75C39.5833 44.8959 39.1753 45.8768 38.3594 46.6927C37.5434 47.5087 36.5625 47.9167 35.4167 47.9167H14.5833C13.4375 47.9167 12.4566 47.5087 11.6406 46.6927C10.8246 45.8768 10.4167 44.8959 10.4167 43.75V35.4167ZM14.5833 14.5834H10.4167V6.25004C10.4167 5.10421 10.8246 4.1233 11.6406 3.30733C12.4566 2.49136 13.4375 2.08337 14.5833 2.08337H35.4167C36.5625 2.08337 37.5434 2.49136 38.3594 3.30733C39.1753 4.1233 39.5833 5.10421 39.5833 6.25004V14.5834H35.4167V12.5H14.5833V14.5834ZM14.5833 41.6667V43.75H35.4167V41.6667H14.5833ZM14.5833 8.33337H35.4167V6.25004H14.5833V8.33337ZM32.0833 34.5834L29.1667 31.5625L35.7292 25L29.1667 18.4375L32.0833 15.4167L41.6667 25L32.0833 34.5834Z" fill="white"/>
</svg>
