<svg width="37" height="37" viewBox="0 0 37 37" fill="none" xmlns="http://www.w3.org/2000/svg">
<g clip-path="url(#clip0_30_7)">
<path fill-rule="evenodd" clip-rule="evenodd" d="M18.5 0C28.7176 0 37 8.49137 37 18.9679C37 27.3466 31.7053 34.4543 24.3589 36.9648C23.421 37.1516 23.088 36.5593 23.088 36.0542C23.088 35.4289 23.1102 33.3866 23.1102 30.8484C23.1102 29.0798 22.5182 27.9255 21.8541 27.3372C25.974 26.8673 30.303 25.2632 30.303 17.9779C30.303 15.9059 29.5852 14.2151 28.3975 12.8868C28.5899 12.4076 29.2244 10.4783 28.2162 7.86611C28.2162 7.86611 26.6659 7.35786 23.1342 9.81096C21.6561 9.39101 20.0725 9.17971 18.5 9.17231C16.9275 9.17971 15.3458 9.39101 13.8695 9.81096C10.3341 7.35786 8.7801 7.86611 8.7801 7.86611C7.77555 10.4783 8.4101 12.4076 8.60065 12.8868C7.4185 14.2151 6.69516 15.9059 6.69516 17.9779C6.69516 25.2447 11.0149 26.8734 15.1238 27.3525C14.5947 27.8261 14.1155 28.6616 13.949 29.8882C12.8945 30.3729 10.2157 31.2117 8.5655 28.3128C8.5655 28.3128 7.58685 26.4903 5.72945 26.3571C5.72945 26.3571 3.9257 26.3331 5.60365 27.5097C5.60365 27.5097 6.8154 28.0925 7.65715 30.2847C7.65715 30.2847 8.74311 33.6701 13.8898 32.5231C13.8991 34.1086 13.9157 35.6028 13.9157 36.0542C13.9157 36.5556 13.5753 37.1423 12.6521 36.9666C5.30024 34.4598 0 27.3484 0 18.9679C0 8.49137 8.2843 0 18.5 0Z" fill="white"/>
</g>
<defs>
<clipPath id="clip0_30_7">
<rect width="37" height="37" fill="white"/>
</clipPath>
</defs>
</svg>
