<svg width="40" height="40" viewBox="0 0 40 40" fill="none" xmlns="http://www.w3.org/2000/svg">
<g clip-path="url(#clip0_18_69)">
<path d="M15.9313 1.14624C14.1088 1.55624 12.2988 2.12249 10.5988 2.97624C10.6375 4.47374 10.735 5.90624 10.9313 7.35749C10.2738 7.78124 9.58378 8.14499 8.97128 8.63999C8.34628 9.11499 7.70878 9.57749 7.14128 10.1375C6.00878 9.39499 4.81753 8.69249 3.58003 8.07374C2.25128 9.49999 1.01503 11.0425 -0.0012207 12.7675C0.760029 14.005 1.56128 15.1562 2.42128 16.2575H2.44128V26.85C2.46128 26.85 2.48003 26.85 2.50003 26.8562L8.99753 27.4812C9.33628 27.5137 9.60253 27.7875 9.62253 28.1325L9.82378 30.9975L15.4875 31.4012L15.8788 28.7575C15.9313 28.4125 16.2238 28.1587 16.5688 28.1587H23.4238C23.7688 28.1587 24.0613 28.4125 24.1138 28.7575L24.505 31.4012L30.1688 30.9975L30.37 28.1325C30.39 27.7875 30.6563 27.5137 31.0013 27.4812L37.4925 26.8562C37.5125 26.8562 37.5313 26.85 37.5513 26.85V16.2575H37.5775C38.4375 15.1637 39.2313 14.005 39.9925 12.7675C38.9838 11.0425 37.74 9.49874 36.4113 8.07374C35.1813 8.69249 33.9825 9.39499 32.85 10.1375C32.2838 9.57749 31.6525 9.11499 31.0275 8.63999C30.4088 8.14499 29.7188 7.77999 29.0613 7.35749C29.2563 5.90624 29.3538 4.47374 29.3938 2.97624C27.7013 2.12374 25.8913 1.55749 24.0613 1.14624C23.3325 2.37624 22.6675 3.70499 22.0888 4.99999C21.3988 4.88874 20.7025 4.84374 20.0125 4.83749H19.98C19.29 4.84374 18.5938 4.88999 17.9038 4.99999C17.3238 3.70499 16.66 2.37624 15.925 1.14624H15.9313ZM10.7938 16.6537C12.955 16.6537 14.7063 18.4112 14.7063 20.5725C14.7063 22.7337 12.955 24.485 10.7938 24.485C8.63253 24.485 6.88128 22.7337 6.88128 20.5725C6.88128 18.4112 8.63253 16.6537 10.7938 16.6537ZM29.2063 16.6537C31.3675 16.6537 33.1188 18.4112 33.1188 20.5725C33.1188 22.7337 31.3675 24.485 29.2063 24.485C27.045 24.485 25.2938 22.7337 25.2938 20.5725C25.2938 18.4112 27.045 16.6537 29.2063 16.6537ZM11.165 18.21C9.73253 18.21 8.56753 19.3687 8.56753 20.8075C8.56753 22.24 9.73253 23.3987 11.165 23.3987C12.6038 23.3987 13.7688 22.24 13.7688 20.8075C13.7688 19.3687 12.6038 18.21 11.165 18.21ZM28.8288 18.21C27.3963 18.21 26.2313 19.3687 26.2313 20.8075C26.2313 22.24 27.3963 23.3987 28.8288 23.3987C30.2675 23.3987 31.4263 22.24 31.4263 20.8075C31.4263 19.3687 30.2675 18.21 28.8288 18.21ZM20 18.965C20.6963 18.965 21.2625 19.4725 21.2625 20.1037V23.71C21.2625 24.3412 20.6963 24.8562 20 24.8562C19.3038 24.8562 18.7375 24.3425 18.7375 23.71V20.1037C18.7375 19.4725 19.3038 18.965 20 18.965ZM2.43503 28.2487C2.43503 28.88 2.44128 29.5637 2.44128 29.7C2.44128 35.8725 10.2663 38.8337 19.9863 38.8662H20.0125C29.7325 38.8337 37.5513 35.8712 37.5513 29.7C37.5513 29.5637 37.5575 28.88 37.5638 28.2487L31.7238 28.815L31.5225 31.6987C31.4963 32.0437 31.2225 32.3237 30.8775 32.3437L23.905 32.8387C23.5663 32.8387 23.2675 32.5912 23.215 32.2462L22.8175 29.5512H17.1725L16.775 32.2462C16.7225 32.6037 16.4038 32.865 16.0325 32.8387L9.11878 32.3437C8.77378 32.3175 8.49378 32.0437 8.46753 31.6987L8.27253 28.815L2.43253 28.255L2.43503 28.2487Z" fill="white"/>
</g>
<defs>
<clipPath id="clip0_18_69">
<rect width="40" height="40" fill="white"/>
</clipPath>
</defs>
</svg>
