<svg width="98" height="21" viewBox="0 0 98 21" fill="none" xmlns="http://www.w3.org/2000/svg">
<path d="M0.402699 16V5.09091H3.28622V7.01562H3.41406C3.64134 6.37642 4.02012 5.87216 4.55043 5.50284C5.08073 5.13352 5.7152 4.94886 6.45384 4.94886C7.20194 4.94886 7.83878 5.13589 8.36435 5.50994C8.88992 5.87926 9.24029 6.38116 9.41548 7.01562H9.52912C9.75166 6.39062 10.1541 5.8911 10.7365 5.51705C11.3236 5.13826 12.0173 4.94886 12.8175 4.94886C13.8355 4.94886 14.6617 5.2732 15.2962 5.92188C15.9354 6.56581 16.255 7.47964 16.255 8.66335V16H13.2365V9.25994C13.2365 8.65388 13.0755 8.19934 12.7536 7.89631C12.4316 7.59328 12.0291 7.44176 11.5462 7.44176C10.9969 7.44176 10.5684 7.61695 10.2607 7.96733C9.95289 8.31297 9.79901 8.76989 9.79901 9.33807V16H6.86577V9.19602C6.86577 8.66098 6.71188 8.23485 6.40412 7.91761C6.10109 7.60038 5.70099 7.44176 5.20384 7.44176C4.86766 7.44176 4.56463 7.52699 4.29474 7.69744C4.02959 7.86316 3.81889 8.09754 3.66264 8.40057C3.50639 8.69886 3.42827 9.04924 3.42827 9.4517V16H0.402699ZM21.7557 16.206C21.0597 16.206 20.4394 16.0852 19.8949 15.8438C19.3504 15.5975 18.9195 15.2353 18.6023 14.7571C18.2898 14.2741 18.1335 13.6728 18.1335 12.9531C18.1335 12.3471 18.2448 11.8381 18.4673 11.4261C18.6899 11.0142 18.9929 10.6828 19.3764 10.4318C19.7599 10.1809 20.1955 9.99148 20.6832 9.86364C21.1757 9.7358 21.6918 9.64583 22.2315 9.59375C22.866 9.52746 23.3774 9.46591 23.7656 9.40909C24.1539 9.34754 24.4356 9.25758 24.6108 9.1392C24.786 9.02083 24.8736 8.84564 24.8736 8.61364V8.57102C24.8736 8.12121 24.7315 7.7732 24.4474 7.52699C24.1681 7.28078 23.7704 7.15767 23.2543 7.15767C22.7098 7.15767 22.2765 7.27841 21.9545 7.51989C21.6326 7.75663 21.4195 8.05492 21.3153 8.41477L18.517 8.1875C18.6591 7.52462 18.9384 6.9517 19.3551 6.46875C19.7718 5.98106 20.3092 5.60701 20.9673 5.34659C21.6302 5.08144 22.3973 4.94886 23.2685 4.94886C23.8745 4.94886 24.4545 5.01989 25.0085 5.16193C25.5672 5.30398 26.062 5.52415 26.4929 5.82244C26.9285 6.12074 27.2718 6.50426 27.5227 6.97301C27.7737 7.43703 27.8991 7.99337 27.8991 8.64205V16H25.0298V14.4872H24.9446C24.7694 14.8281 24.535 15.1288 24.2415 15.3892C23.9479 15.6449 23.5952 15.8461 23.1832 15.9929C22.7713 16.1349 22.2955 16.206 21.7557 16.206ZM22.6222 14.1179C23.0672 14.1179 23.4602 14.0303 23.8011 13.8551C24.142 13.6752 24.4096 13.4337 24.6037 13.1307C24.7978 12.8277 24.8949 12.4844 24.8949 12.1009V10.9432C24.8002 11.0047 24.67 11.0616 24.5043 11.1136C24.3433 11.161 24.161 11.206 23.9574 11.2486C23.7538 11.2865 23.5502 11.322 23.3466 11.3551C23.143 11.3835 22.9583 11.4096 22.7926 11.4332C22.4375 11.4853 22.1274 11.5682 21.8622 11.6818C21.5971 11.7955 21.3911 11.9493 21.2443 12.1435C21.0975 12.3329 21.0241 12.5696 21.0241 12.8537C21.0241 13.2656 21.1733 13.5805 21.4716 13.7983C21.7746 14.0114 22.1581 14.1179 22.6222 14.1179ZM36.049 5.09091V7.36364H29.4794V5.09091H36.049ZM30.9709 2.47727H33.9964V12.6477C33.9964 12.9271 34.0391 13.1449 34.1243 13.3011C34.2095 13.4527 34.3279 13.5592 34.4794 13.6207C34.6357 13.6823 34.8156 13.7131 35.0192 13.7131C35.1612 13.7131 35.3033 13.7012 35.4453 13.6776C35.5874 13.6491 35.6963 13.6278 35.772 13.6136L36.2479 15.8651C36.0964 15.9124 35.8833 15.9669 35.6087 16.0284C35.334 16.0947 35.0002 16.1349 34.6072 16.1491C33.8781 16.1776 33.2389 16.0805 32.6896 15.858C32.1451 15.6354 31.7214 15.2898 31.4183 14.821C31.1153 14.3523 30.9661 13.7604 30.9709 13.0455V2.47727ZM38.0199 20.0909V5.09091H41.0028V6.9233H41.1378C41.2704 6.62973 41.4621 6.33144 41.7131 6.02841C41.9688 5.72064 42.3002 5.46496 42.7074 5.26136C43.1193 5.05303 43.6307 4.94886 44.2415 4.94886C45.0369 4.94886 45.7708 5.1572 46.4432 5.57386C47.1155 5.9858 47.6529 6.60843 48.0554 7.44176C48.4579 8.27036 48.6591 9.30966 48.6591 10.5597C48.6591 11.7765 48.4626 12.804 48.0696 13.642C47.6813 14.4754 47.151 15.1075 46.4787 15.5384C45.8111 15.9645 45.063 16.1776 44.2344 16.1776C43.6473 16.1776 43.1477 16.0805 42.7358 15.8864C42.3286 15.6922 41.9948 15.4484 41.7344 15.1548C41.474 14.8565 41.2751 14.5559 41.1378 14.2528H41.0455V20.0909H38.0199ZM40.9815 10.5455C40.9815 11.1941 41.0715 11.7599 41.2514 12.2429C41.4313 12.7259 41.6918 13.1023 42.0327 13.3722C42.3736 13.6373 42.7879 13.7699 43.2756 13.7699C43.768 13.7699 44.1847 13.6349 44.5256 13.3651C44.8665 13.0904 45.1245 12.7116 45.2997 12.2287C45.4796 11.741 45.5696 11.1799 45.5696 10.5455C45.5696 9.91572 45.482 9.36174 45.3068 8.88352C45.1316 8.4053 44.8736 8.03125 44.5327 7.76136C44.1918 7.49148 43.7727 7.35653 43.2756 7.35653C42.7831 7.35653 42.3665 7.48674 42.0256 7.74716C41.6894 8.00758 41.4313 8.37689 41.2514 8.85511C41.0715 9.33333 40.9815 9.89678 40.9815 10.5455ZM53.7017 1.45455V16H50.6761V1.45455H53.7017ZM61.0543 16.2131C59.9511 16.2131 58.997 15.9787 58.1921 15.5099C57.3919 15.0365 56.774 14.3783 56.3384 13.5355C55.9028 12.688 55.685 11.7055 55.685 10.5881C55.685 9.46117 55.9028 8.47633 56.3384 7.63352C56.774 6.78598 57.3919 6.12784 58.1921 5.65909C58.997 5.18561 59.9511 4.94886 61.0543 4.94886C62.1576 4.94886 63.1093 5.18561 63.9094 5.65909C64.7144 6.12784 65.3346 6.78598 65.7702 7.63352C66.2058 8.47633 66.4237 9.46117 66.4237 10.5881C66.4237 11.7055 66.2058 12.688 65.7702 13.5355C65.3346 14.3783 64.7144 15.0365 63.9094 15.5099C63.1093 15.9787 62.1576 16.2131 61.0543 16.2131ZM61.0685 13.8693C61.5704 13.8693 61.9895 13.7273 62.3256 13.4432C62.6618 13.1544 62.9151 12.7614 63.0856 12.2642C63.2608 11.767 63.3484 11.2012 63.3484 10.5668C63.3484 9.93229 63.2608 9.36648 63.0856 8.86932C62.9151 8.37216 62.6618 7.97917 62.3256 7.69034C61.9895 7.40151 61.5704 7.2571 61.0685 7.2571C60.5619 7.2571 60.1358 7.40151 59.7901 7.69034C59.4492 7.97917 59.1912 8.37216 59.016 8.86932C58.8455 9.36648 58.7603 9.93229 58.7603 10.5668C58.7603 11.2012 58.8455 11.767 59.016 12.2642C59.1912 12.7614 59.4492 13.1544 59.7901 13.4432C60.1358 13.7273 60.5619 13.8693 61.0685 13.8693ZM74.1935 5.09091V7.36364H67.6239V5.09091H74.1935ZM69.1154 2.47727H72.141V12.6477C72.141 12.9271 72.1836 13.1449 72.2688 13.3011C72.354 13.4527 72.4724 13.5592 72.6239 13.6207C72.7802 13.6823 72.9601 13.7131 73.1637 13.7131C73.3058 13.7131 73.4478 13.7012 73.5898 13.6776C73.7319 13.6491 73.8408 13.6278 73.9165 13.6136L74.3924 15.8651C74.2409 15.9124 74.0278 15.9669 73.7532 16.0284C73.4786 16.0947 73.1448 16.1349 72.7518 16.1491C72.0226 16.1776 71.3834 16.0805 70.8342 15.858C70.2897 15.6354 69.8659 15.2898 69.5629 14.821C69.2598 14.3523 69.1107 13.7604 69.1154 13.0455V2.47727ZM79.4244 1.45455V16H76.3988V1.45455H79.4244ZM81.848 16V5.09091H84.8736V16H81.848ZM83.3679 3.68466C82.9181 3.68466 82.5322 3.53551 82.2102 3.23722C81.893 2.93419 81.7344 2.57197 81.7344 2.15057C81.7344 1.7339 81.893 1.37642 82.2102 1.07812C82.5322 0.775094 82.9181 0.623579 83.3679 0.623579C83.8177 0.623579 84.2012 0.775094 84.5185 1.07812C84.8404 1.37642 85.0014 1.7339 85.0014 2.15057C85.0014 2.57197 84.8404 2.93419 84.5185 3.23722C84.2012 3.53551 83.8177 3.68466 83.3679 3.68466ZM87.354 16V1.45455H90.3796V6.9233H90.4719C90.6045 6.62973 90.7963 6.33144 91.0472 6.02841C91.3029 5.72064 91.6344 5.46496 92.0415 5.26136C92.4535 5.05303 92.9648 4.94886 93.5756 4.94886C94.3711 4.94886 95.105 5.1572 95.7773 5.57386C96.4497 5.9858 96.9871 6.60843 97.3896 7.44176C97.792 8.27036 97.9933 9.30966 97.9933 10.5597C97.9933 11.7765 97.7968 12.804 97.4038 13.642C97.0155 14.4754 96.4852 15.1075 95.8129 15.5384C95.1452 15.9645 94.3971 16.1776 93.5685 16.1776C92.9814 16.1776 92.4819 16.0805 92.07 15.8864C91.6628 15.6922 91.329 15.4484 91.0685 15.1548C90.8081 14.8565 90.6093 14.5559 90.4719 14.2528H90.337V16H87.354ZM90.3157 10.5455C90.3157 11.1941 90.4057 11.7599 90.5856 12.2429C90.7655 12.7259 91.0259 13.1023 91.3668 13.3722C91.7077 13.6373 92.122 13.7699 92.6097 13.7699C93.1022 13.7699 93.5188 13.6349 93.8597 13.3651C94.2006 13.0904 94.4587 12.7116 94.6339 12.2287C94.8138 11.741 94.9038 11.1799 94.9038 10.5455C94.9038 9.91572 94.8162 9.36174 94.641 8.88352C94.4658 8.4053 94.2077 8.03125 93.8668 7.76136C93.5259 7.49148 93.1069 7.35653 92.6097 7.35653C92.1173 7.35653 91.7006 7.48674 91.3597 7.74716C91.0236 8.00758 90.7655 8.37689 90.5856 8.85511C90.4057 9.33333 90.3157 9.89678 90.3157 10.5455Z" fill="white"/>
</svg>
