<svg width="40" height="40" viewBox="0 0 40 40" fill="none" xmlns="http://www.w3.org/2000/svg">
<g clip-path="url(#clip0_18_71)">
<path fill-rule="evenodd" clip-rule="evenodd" d="M25.488 36.916C24.524 36.916 23.744 36.1321 23.744 35.1631C23.744 34.194 24.524 33.4121 25.488 33.4121C26.452 33.4121 27.232 34.194 27.232 35.1631C27.232 36.1321 26.452 36.916 25.488 36.916ZM20.144 40C30.3 40 29.666 35.5732 29.666 35.5732L29.654 30.9873H19.964V29.6104H33.502C33.502 29.6104 40 30.3523 40 20.0527C40 9.75317 34.33 10.1162 34.33 10.1162H30.944V14.8975C30.944 14.8975 31.126 20.5967 25.364 20.5967H15.752C15.752 20.5967 10.352 20.511 10.352 25.8447V34.6621C10.352 34.6621 9.53198 40 20.144 40ZM14.514 3.08398C15.478 3.08398 16.256 3.86787 16.256 4.83691C16.256 5.80595 15.478 6.58789 14.514 6.58789C13.55 6.58789 12.77 5.80595 12.77 4.83691C12.77 3.86787 13.55 3.08398 14.514 3.08398ZM19.856 0C9.70202 0 10.336 4.42676 10.336 4.42676L10.348 9.0127H20.038V10.3896H6.49799C6.49799 10.3896 0 9.64773 0 19.9473C0 30.2468 5.672 29.8838 5.672 29.8838H9.05603V25.1025C9.05603 25.1025 8.874 19.4033 14.638 19.4033H24.248C24.248 19.4033 29.648 19.489 29.648 14.1553V5.33789C29.648 5.33789 30.468 0 19.856 0Z" fill="white"/>
</g>
<defs>
<clipPath id="clip0_18_71">
<rect width="40" height="40" fill="white"/>
</clipPath>
</defs>
</svg>
