<svg width="40" height="40" viewBox="0 0 40 40" fill="none" xmlns="http://www.w3.org/2000/svg">
<g clip-path="url(#clip0_18_52)">
<path d="M20 16.8501C20.615 16.8501 21.2162 17.0321 21.728 17.3731C22.2398 17.7141 22.6393 18.1989 22.8761 18.7665C23.1129 19.334 23.1766 19.959 23.059 20.5626C22.9414 21.1663 22.6479 21.7216 22.2153 22.1588C21.7828 22.596 21.2306 22.8954 20.6282 23.0194C20.0259 23.1434 19.4003 23.0864 18.8302 22.8556C18.2602 22.6248 17.7712 22.2306 17.4247 21.7224C17.0783 21.2143 16.8899 20.615 16.8833 20.0001C16.8811 19.5886 16.96 19.1807 17.1155 18.7997C17.2709 18.4187 17.4999 18.0721 17.7893 17.7796C18.0787 17.4871 18.4229 17.2544 18.8022 17.0949C19.1815 16.9355 19.5885 16.8523 20 16.8501ZM12.2833 33.3334C13.3333 33.9667 15.6167 33.0001 18.2833 30.5001C17.3921 29.4872 16.5521 28.4304 15.7667 27.3334C14.4224 27.1828 13.0871 26.9603 11.7667 26.6667C10.9167 30.2334 11.2333 32.6834 12.2833 33.3334ZM13.4667 23.7667L12.9833 22.9167C12.7949 23.3849 12.6336 23.8634 12.5 24.3501C12.95 24.4501 13.45 24.5334 13.9667 24.6167L13.4667 23.7667ZM24.3667 22.5001L25.7167 20.0001L24.3667 17.5001C23.8667 16.6167 23.3333 15.8334 22.85 15.0501C21.95 15.0001 21 15.0001 20 15.0001C19 15.0001 18.05 15.0001 17.15 15.0001C16.6667 15.7834 16.1333 16.5667 15.6333 17.4501L14.2833 20.0001L15.6333 22.5001C16.1333 23.3834 16.6667 24.1667 17.15 24.9501C18.05 24.9501 19 24.9501 20 24.9501C21 24.9501 21.95 24.9501 22.85 24.9501C23.3333 24.1667 23.8667 23.3834 24.3667 22.5001ZM20 11.3001C19.6833 11.6667 19.35 12.0501 19.0167 12.5001H20.9833C20.65 12.0501 20.3167 11.6667 20 11.3001ZM20 28.7001C20.3167 28.3334 20.65 27.9501 20.9833 27.5001H19.0167C19.35 27.9501 19.6833 28.3334 20 28.7001ZM27.7 6.66673C26.6667 6.0334 24.3667 7.00007 21.7167 9.50007C22.608 10.5129 23.4479 11.5698 24.2333 12.6667C25.5764 12.7953 26.9117 12.9956 28.2333 13.2667C29.0833 9.70007 28.7667 7.25007 27.7 6.60007M26.5333 16.1667L27.0167 17.0167C27.2051 16.5486 27.3665 16.07 27.5 15.5834C27.05 15.4834 26.55 15.4001 26.0333 15.3167L26.5333 16.1667ZM28.95 4.50007C31.4 5.90007 31.6667 9.5834 30.6167 13.8834C34.85 15.1334 37.9 17.2167 37.9 20.0167C37.9 22.8167 34.85 24.9001 30.6167 26.1501C31.65 30.4501 31.3833 34.1334 28.95 35.5334C26.5167 36.9334 23.2 35.3334 20 32.2834C16.8 35.3334 13.4833 36.9334 11.0333 35.5334C8.58334 34.1334 8.33334 30.5334 9.36668 26.1501C5.13334 24.9001 2.08334 22.8167 2.08334 20.0167C2.08334 17.2167 5.13334 15.1167 9.36668 13.8667C8.33334 9.56673 8.60001 5.8834 11.0333 4.4834C13.4667 3.0834 16.8 4.6834 20 7.7334C23.2 4.6834 26.5167 3.0834 28.95 4.4834M28.4667 20.0001C29.0455 21.227 29.5574 22.4844 30 23.7667C33.5 22.7167 35.4667 21.2167 35.4667 20.0001C35.4667 18.7834 33.45 17.2834 30 16.2334C29.5574 17.5158 29.0455 18.7732 28.4667 20.0001ZM11.5333 20.0001C10.9545 18.7732 10.4426 17.5158 10 16.2334C6.50001 17.2834 4.53334 18.7834 4.53334 20.0001C4.53334 21.2167 6.55001 22.7167 10 23.7667C10.4426 22.4844 10.9545 21.227 11.5333 20.0001ZM26.5333 23.7667L26.0333 24.6167C26.55 24.6167 27.05 24.4501 27.5 24.3501C27.3665 23.8634 27.2051 23.3849 27.0167 22.9167L26.5333 23.7667ZM21.6667 30.5001C24.3167 33.0001 26.6667 33.9667 27.65 33.3334C28.6333 32.7001 29.0333 30.3001 28.1833 26.6667C26.8617 26.9379 25.5264 27.1382 24.1833 27.2667C23.3997 28.3864 22.5598 29.4656 21.6667 30.5001ZM13.4667 16.2334L13.9667 15.3834C13.45 15.3834 12.95 15.5501 12.5 15.6501C12.6336 16.1367 12.7949 16.6153 12.9833 17.0834L13.4667 16.2334ZM18.3333 9.50007C15.6333 7.00007 13.3333 6.0334 12.2833 6.66673C11.2333 7.30007 10.9167 9.70007 11.7667 13.3334C13.0884 13.0622 14.4236 12.8619 15.7667 12.7334C16.5665 11.6126 17.4232 10.5334 18.3333 9.50007Z" fill="white"/>
</g>
<defs>
<clipPath id="clip0_18_52">
<rect width="40" height="40" fill="white"/>
</clipPath>
</defs>
</svg>
