<svg width="60" height="60" viewBox="0 0 60 60" fill="none" xmlns="http://www.w3.org/2000/svg">
<path d="M11.375 47.5C9.24998 47.5 7.60414 46.7604 6.43748 45.2812C5.27081 43.8021 4.83331 42 5.12498 39.875L7.74998 21.125C8.12498 18.625 9.23956 16.5625 11.0937 14.9375C12.9479 13.3125 15.125 12.5 17.625 12.5H42.375C44.875 12.5 47.0521 13.3125 48.9062 14.9375C50.7604 16.5625 51.875 18.625 52.25 21.125L54.875 39.875C55.1666 42 54.7291 43.8021 53.5625 45.2812C52.3958 46.7604 50.75 47.5 48.625 47.5C47.75 47.5 46.9375 47.3438 46.1875 47.0312C45.4375 46.7188 44.75 46.25 44.125 45.625L38.5 40H21.5L15.875 45.625C15.25 46.25 14.5625 46.7188 13.8125 47.0312C13.0625 47.3438 12.25 47.5 11.375 47.5ZM12.375 42.125L19.5 35H40.5L47.625 42.125C47.7083 42.2083 48.0416 42.3333 48.625 42.5C49.0833 42.5 49.4479 42.3646 49.7187 42.0938C49.9896 41.8229 50.0833 41.4583 50 41L47.25 21.75C47.0833 20.5417 46.5416 19.5312 45.625 18.7188C44.7083 17.9062 43.625 17.5 42.375 17.5H17.625C16.375 17.5 15.2916 17.9062 14.375 18.7188C13.4583 19.5312 12.9166 20.5417 12.75 21.75L9.99998 41C9.91664 41.4583 10.0104 41.8229 10.2812 42.0938C10.5521 42.3646 10.9166 42.5 11.375 42.5C11.4583 42.5 11.7916 42.375 12.375 42.125ZM42.5 32.5C43.2083 32.5 43.8021 32.2604 44.2812 31.7812C44.7604 31.3021 45 30.7083 45 30C45 29.2917 44.7604 28.6979 44.2812 28.2188C43.8021 27.7396 43.2083 27.5 42.5 27.5C41.7916 27.5 41.1979 27.7396 40.7187 28.2188C40.2396 28.6979 40 29.2917 40 30C40 30.7083 40.2396 31.3021 40.7187 31.7812C41.1979 32.2604 41.7916 32.5 42.5 32.5ZM37.5 25C38.2083 25 38.8021 24.7604 39.2812 24.2812C39.7604 23.8021 40 23.2083 40 22.5C40 21.7917 39.7604 21.1979 39.2812 20.7188C38.8021 20.2396 38.2083 20 37.5 20C36.7916 20 36.1979 20.2396 35.7187 20.7188C35.2396 21.1979 35 21.7917 35 22.5C35 23.2083 35.2396 23.8021 35.7187 24.2812C36.1979 24.7604 36.7916 25 37.5 25ZM19.375 32.5H23.125V28.125H27.5V24.375H23.125V20H19.375V24.375H15V28.125H19.375V32.5Z" fill="white"/>
</svg>
