<svg width="40" height="40" viewBox="0 0 40 40" fill="none" xmlns="http://www.w3.org/2000/svg">
<g clip-path="url(#clip0_18_55)">
<path d="M20.0002 6.66675C17.2642 6.66675 14.9121 7.40517 13.0658 8.98773C11.2327 10.5589 10.0336 12.8462 9.36837 15.6971C9.22317 16.3193 9.53978 16.957 10.1232 17.2175C10.7066 17.478 11.3927 17.2881 11.7591 16.7647C12.6035 15.5585 13.4465 14.8337 14.2565 14.4618C15.041 14.1015 15.8866 14.0286 16.8552 14.288C17.8326 14.5498 18.5892 15.3166 19.7771 16.6085L19.8155 16.6503C20.711 17.6242 21.8033 18.8123 23.2973 19.7342C24.8476 20.6907 26.7768 21.3334 29.3336 21.3334C32.0693 21.3334 34.4216 20.5949 36.268 19.0124C38.1008 17.4412 39.3 15.1539 39.9653 12.303C40.1104 11.6809 39.7939 11.0431 39.2104 10.7826C38.6272 10.5221 37.9408 10.712 37.5744 11.2354C36.7301 12.4417 35.8872 13.1664 35.0771 13.5384C34.2925 13.8986 33.4469 13.9716 32.4784 13.7121C31.5011 13.4503 30.7443 12.6835 29.5565 11.3916L29.5181 11.3498C28.6227 10.3759 27.5304 9.18776 26.0363 8.26597C24.486 7.30944 22.5569 6.66675 20.0002 6.66675Z" fill="white"/>
<path d="M10.6668 18.6667C7.93091 18.6667 5.57875 19.4052 3.73243 20.9877C1.89939 22.5589 0.700245 24.8462 0.0350307 27.6972C-0.110148 28.3193 0.206443 28.9569 0.789829 29.2174C1.37322 29.478 2.0594 29.2881 2.42579 28.7646C3.27013 27.5585 4.11317 26.8337 4.9232 26.4618C5.70768 26.1015 6.55325 26.0286 7.52184 26.288C8.49928 26.5498 9.25592 27.3166 10.4438 28.6086L10.4822 28.6502C11.3776 29.6241 12.47 30.8124 13.964 31.7342C15.5143 32.6908 17.4434 33.3334 20.0002 33.3334C22.7361 33.3334 25.0882 32.595 26.9347 31.0124C28.7675 29.4412 29.9667 27.154 30.632 24.303C30.7771 23.6808 30.4605 23.0431 29.8771 22.7826C29.2939 22.5221 28.6075 22.712 28.2411 23.2354C27.3968 24.4417 26.5538 25.1664 25.7438 25.5383C24.9593 25.8986 24.1137 25.9716 23.1451 25.7121C22.1677 25.4503 21.4111 24.6835 20.2232 23.3916L20.1848 23.3498C19.2894 22.3759 18.197 21.1878 16.703 20.2659C15.1527 19.3094 13.2235 18.6667 10.6668 18.6667Z" fill="white"/>
</g>
<defs>
<clipPath id="clip0_18_55">
<rect width="40" height="40" fill="white"/>
</clipPath>
</defs>
</svg>
