<svg width="40" height="40" viewBox="0 0 40 40" fill="none" xmlns="http://www.w3.org/2000/svg">
<g clip-path="url(#clip0_18_81)">
<path fill-rule="evenodd" clip-rule="evenodd" d="M28.9325 0.687547C28.7675 0.735047 28.5525 0.817547 28.455 0.870047C28.3575 0.922547 24.9975 3.80005 20.99 7.26505C16.98 10.7275 13.655 13.56 13.6 13.56C13.545 13.56 11.94 12.39 10.0325 10.96C8.12749 9.53255 6.4625 8.31755 6.3325 8.26505C5.9575 8.10755 5.1625 8.14005 4.79999 8.32505C4.38499 8.54005 0.472495 12.4375 0.234995 12.875C-0.0900053 13.475 -0.0500053 14.26 0.334995 14.79C0.437495 14.9325 1.77249 16.1825 3.29749 17.565C4.825 18.9475 6.065 20.1025 6.0525 20.13C6.0425 20.16 4.815 21.235 3.325 22.5225C1.83499 23.8075 0.519995 24.975 0.404995 25.1125C-0.0375053 25.6475 -0.110005 26.4925 0.232495 27.1225C0.472495 27.56 4.37999 31.4575 4.79999 31.675C5.21499 31.8925 6.0425 31.8975 6.4325 31.6875C6.58 31.61 8.1825 30.4325 9.9925 29.0725L13.2875 26.6025L13.56 26.8525C13.71 26.99 16.7825 29.7725 20.385 33.035C25 37.2125 27.05 39.025 27.315 39.1675L27.69 39.3675H29.375H31.06L35.1375 37.3325C38.8875 35.4625 39.2375 35.275 39.5075 34.9775C40.04 34.385 40 35.58 40 20.6325C40 6.08005 40.0225 6.96255 39.6225 6.38505C39.4775 6.17505 38.5975 5.55755 35.5375 3.51505C33.395 2.08505 31.505 0.852547 31.3375 0.777547C31.0875 0.665047 30.87 0.637547 30.1325 0.620047C29.54 0.607547 29.13 0.630047 28.9325 0.687547ZM33.18 6.45005L36.2625 8.50005L36.265 20.55L36.2675 32.6L33.255 34.1L30.245 35.6H29.5325H28.8225L21.65 29.11C17.705 25.54 14.37 22.57 14.2425 22.5075C13.745 22.2725 12.9925 22.255 12.59 22.4725C12.505 22.5175 10.9625 23.66 9.16 25.01C7.3575 26.3625 5.855 27.4675 5.8225 27.4675C5.7475 27.4675 4.62999 26.3475 4.67 26.3125C6.3525 24.87 9.865 21.8275 10.125 21.585C10.34 21.3825 10.5475 21.105 10.65 20.885C10.7925 20.5675 10.8125 20.45 10.785 20.0275C10.76 19.6325 10.715 19.47 10.5575 19.2175C10.425 19.0025 9.4225 18.0525 7.485 16.3L4.60999 13.7L5.1875 13.1175C5.505 12.795 5.7925 12.5325 5.8275 12.5325C5.86 12.5325 7.4375 13.695 9.3275 15.115C13.0675 17.9225 13.17 17.985 13.8525 17.905C14.0475 17.8825 14.3325 17.805 14.485 17.7325C14.64 17.66 15.7425 16.7575 16.9325 15.7275C18.125 14.6975 19.46 13.5425 19.9 13.1625C20.34 12.7825 22.8 10.6575 25.3675 8.43755C27.9325 6.22005 30.0475 4.40255 30.065 4.40255C30.085 4.40005 31.485 5.32255 33.18 6.45005ZM29.1 10.6425C29.0275 10.6575 28.8475 10.715 28.7 10.77C28.5525 10.8225 26.0025 12.615 23.0325 14.7525C17.1675 18.975 17.3 18.8675 17.1275 19.635C17.0625 19.9225 17.0625 20.0775 17.1275 20.365C17.2975 21.1325 17.17 21.025 23.0325 25.2475C26.0025 27.385 28.5675 29.1875 28.7325 29.25C29.6 29.5825 30.59 29.1775 31.055 28.3L31.2325 27.9675V20V12.0325L31.055 11.7C30.8325 11.28 30.52 10.9775 30.1325 10.81C29.815 10.67 29.3225 10.59 29.1 10.6425ZM27.45 21.8925L27.4325 23.785L24.8175 21.91C23.38 20.8775 22.2025 20.0175 22.2025 20C22.2025 19.9825 23.38 19.1225 24.8175 18.09L27.4325 16.215L27.45 18.1075C27.46 19.1475 27.46 20.8525 27.45 21.8925Z" fill="white"/>
</g>
<defs>
<clipPath id="clip0_18_81">
<rect width="40" height="40" fill="white"/>
</clipPath>
</defs>
</svg>
